<?xml version="1.0" standalone="no"?>
<!DOCTYPE svg PUBLIC "-//W3C//DTD SVG 20010904//EN"
 "http://www.w3.org/TR/2001/REC-SVG-20010904/DTD/svg10.dtd">
<svg version="1.0" xmlns="http://www.w3.org/2000/svg"
 width="1536.000000pt" height="1024.000000pt" viewBox="0 0 1536.000000 1024.000000"
 preserveAspectRatio="xMidYMid meet">

<g transform="translate(0.000000,1024.000000) scale(0.100000,-0.100000)"
fill="#000000" stroke="none">
<path d="M2939 6253 c-825 -827 -818 -819 -874 -973 -39 -108 -46 -271 -16
-389 30 -122 78 -199 200 -324 l105 -108 13 55 c17 78 63 163 127 239 l55 65
-74 80 c-107 116 -118 173 -52 265 35 49 1272 1280 1290 1285 7 1 82 -68 167
-153 l155 -156 -30 -26 c-16 -14 -49 -43 -72 -65 l-43 -38 0 -993 0 -992 220
220 220 220 0 975 0 975 -307 307 -308 308 -776 -777z"/>
<path d="M6363 6736 c-19 -37 -338 -783 -348 -814 -6 -22 -4 -22 92 -22 l98 0
35 90 35 90 200 -2 199 -3 36 -85 36 -85 97 -3 c53 -1 97 0 97 3 0 4 -212 508
-333 793 l-31 73 -99 -2 -98 -1 -16 -32z m181 -339 c36 -87 66 -160 66 -163 0
-2 -61 -4 -135 -4 -74 0 -135 2 -135 5 0 5 84 217 115 289 9 21 18 37 20 35 2
-2 33 -75 69 -162z"/>
<path d="M7148 6762 l-98 -3 0 -429 0 -430 318 0 317 0 -2 77 -1 78 -216 3
-216 2 0 351 c1 193 0 352 -2 353 -2 0 -47 0 -100 -2z"/>
<path d="M7800 6333 l0 -433 100 0 100 0 0 429 0 430 -100 3 -100 3 0 -432z"/>
<path d="M8467 6738 c-8 -18 -91 -211 -186 -430 -94 -218 -171 -399 -171 -402
0 -3 44 -6 98 -6 l99 0 34 88 35 87 199 0 199 0 37 -85 36 -85 101 -3 101 -3
-50 121 c-47 115 -284 666 -309 721 -12 26 -15 27 -111 28 l-98 2 -14 -33z
m182 -345 c33 -83 61 -154 61 -157 0 -3 -61 -6 -136 -6 -75 0 -134 4 -132 8 2
4 32 79 67 166 35 86 67 154 71 149 4 -4 35 -76 69 -160z"/>
<path d="M9743 6754 c-2 -5 -2 -124 -1 -262 2 -139 1 -252 -2 -252 -3 1 -97
118 -210 260 l-205 260 -87 0 -88 0 0 -430 0 -430 95 0 95 0 2 264 3 265 45
-57 c25 -31 121 -150 213 -264 l167 -206 80 -4 80 -3 0 428 c0 235 -1 430 -2
433 -5 11 -180 9 -185 -2z"/>
<path d="M10104 6761 c-2 -2 -4 -40 -4 -83 l0 -78 237 0 237 0 -26 -27 c-14
-16 -123 -149 -242 -296 l-216 -269 0 -59 0 -59 375 0 375 0 0 85 0 85 -235 0
c-129 0 -235 2 -235 5 0 4 113 145 376 469 l72 88 4 69 3 69 -358 2 c-197 2
-361 1 -363 -1z"/>
<path d="M11272 6756 c-10 -12 -355 -806 -366 -841 -6 -19 -2 -20 93 -17 l99
3 35 87 35 87 202 0 202 0 36 -87 35 -88 99 0 c54 0 98 3 98 8 0 4 -83 198
-183 431 l-182 423 -97 3 c-64 2 -100 -1 -106 -9z m169 -359 l67 -162 -69 -3
c-38 -2 -100 -2 -138 0 l-68 3 66 163 c36 89 68 162 71 162 3 0 35 -73 71
-163z"/>
<path d="M3119 5223 c-609 -610 -606 -607 -644 -738 -25 -85 -17 -205 18 -277
36 -74 84 -117 417 -373 233 -179 312 -246 435 -371 189 -191 219 -209 355
-209 169 0 123 -39 901 742 649 651 677 681 716 758 104 203 107 413 9 611
-36 72 -65 112 -138 189 l-93 98 -6 -209 c-3 -118 -12 -231 -19 -259 -17 -67
-61 -163 -101 -222 -17 -26 -309 -326 -648 -666 l-616 -617 -387 387 -388 388
385 385 385 385 -2 288 -3 287 -576 -577z m-58 -1480 c13 -16 12 -17 -3 -4
-17 13 -22 21 -14 21 2 0 10 -8 17 -17z"/>
<path d="M10442 5591 c-171 -59 -234 -241 -126 -361 44 -48 96 -73 227 -106
121 -30 164 -52 173 -90 26 -105 -175 -137 -354 -58 -30 13 -56 23 -57 22 -1
-2 -14 -30 -29 -63 l-27 -60 21 -17 c87 -71 380 -89 492 -32 84 43 138 123
138 203 0 126 -68 185 -271 236 -165 42 -186 57 -177 131 2 23 13 34 48 52 61
30 140 29 237 -3 42 -14 77 -24 78 -23 2 2 14 31 28 65 l25 61 -47 20 c-107
46 -283 56 -379 23z"/>
<path d="M6040 5200 l0 -400 310 0 310 0 0 75 0 75 -215 0 -215 0 0 95 0 95
180 0 180 0 0 70 0 70 -180 0 -180 0 0 85 0 85 205 0 205 0 0 75 0 75 -300 0
-300 0 0 -400z"/>
<path d="M6810 5200 l0 -400 85 0 85 0 2 236 3 236 114 -191 114 -192 50 3 51
3 113 190 113 190 0 -238 0 -238 83 3 c45 2 81 6 80 11 -2 4 -3 183 -3 397 l0
390 -69 0 -69 0 -147 -245 c-81 -135 -150 -245 -153 -245 -4 0 -74 111 -156
245 l-148 245 -74 0 -74 0 0 -400z"/>
<path d="M7900 5200 l0 -401 93 3 92 3 5 110 5 110 125 2 c99 1 136 5 180 22
122 46 180 130 180 262 0 103 -32 168 -110 222 -79 54 -153 67 -382 67 l-188
0 0 -400z m426 231 c66 -30 92 -109 59 -187 -22 -54 -76 -74 -200 -74 l-100 0
3 140 3 140 97 0 c73 0 107 -5 138 -19z"/>
<path d="M8700 5200 l0 -400 95 0 95 0 0 113 0 112 89 -3 90 -3 70 -110 70
-109 96 0 c74 0 94 3 89 13 -4 6 -44 66 -87 131 -49 74 -75 122 -68 124 33 11
98 72 119 113 70 136 16 306 -118 374 -70 35 -146 45 -352 45 l-188 0 0 -400z
m398 244 c17 -3 45 -18 63 -34 30 -24 33 -33 37 -91 3 -55 1 -68 -19 -93 -34
-44 -76 -56 -189 -56 l-100 0 0 140 0 140 89 0 c49 0 102 -3 119 -6z"/>
<path d="M9530 5200 l0 -400 308 2 307 3 3 73 4 72 -216 0 -216 0 0 95 0 95
180 0 180 0 0 70 0 70 -180 0 -180 0 0 85 0 85 205 0 205 0 0 75 0 75 -300 0
-300 0 0 -400z"/>
<path d="M11137 5213 c-93 -214 -171 -394 -174 -401 -4 -10 15 -12 88 -10 l93
3 36 83 35 84 180 0 179 0 36 -84 36 -83 92 -3 c51 -1 92 1 92 6 0 8 -114 276
-297 697 l-39 90 -95 3 -94 2 -168 -387z m322 54 c33 -81 61 -149 61 -152 0
-3 -57 -5 -126 -5 -97 0 -125 3 -121 13 64 161 120 297 122 295 1 -2 30 -69
64 -151z"/>
<path d="M11940 5200 l0 -400 95 0 95 0 0 109 0 110 86 3 87 3 73 -112 73
-113 96 0 c74 0 94 3 89 13 -4 6 -43 65 -86 129 l-78 117 29 15 c42 22 106 99
119 144 28 91 7 207 -47 273 -34 41 -114 82 -189 98 -29 6 -141 11 -247 11
l-195 0 0 -400z m429 232 c51 -26 74 -63 75 -121 1 -58 -22 -97 -75 -123 -26
-14 -59 -18 -136 -18 l-103 0 0 140 0 140 103 0 c77 0 110 -4 136 -18z"/>
<path d="M12800 5200 l0 -400 90 0 90 0 0 400 0 400 -90 0 -90 0 0 -400z"/>
<path d="M13267 5218 c-91 -211 -169 -391 -173 -401 -6 -16 1 -18 87 -15 l93
3 31 77 c17 42 34 80 37 84 4 3 87 6 185 6 l178 0 36 -83 36 -84 98 -3 c76 -2
96 0 92 10 -3 7 -77 178 -165 380 -88 201 -163 376 -167 387 -6 19 -14 21
-104 21 l-97 0 -167 -382z m322 52 c33 -80 61 -149 61 -153 0 -4 -57 -7 -126
-7 -97 0 -125 3 -121 13 3 6 25 64 50 127 49 125 69 172 72 168 2 -2 30 -68
64 -148z"/>
<path d="M14070 5200 l0 -400 290 0 290 0 0 75 0 75 -195 0 -195 0 0 325 0
325 -95 0 -95 0 0 -400z"/>
<path d="M6175 4437 c-62 -21 -92 -45 -116 -94 -15 -31 -20 -56 -16 -82 11
-82 57 -116 212 -158 99 -26 130 -42 137 -70 27 -103 -165 -124 -323 -36 -3 2
-13 -15 -22 -38 -21 -54 -14 -63 70 -89 79 -24 200 -27 265 -5 120 42 165 170
87 251 -32 33 -72 50 -209 88 -78 22 -100 40 -100 81 0 26 6 39 26 52 41 27
138 29 206 5 l57 -20 15 39 c9 22 16 41 16 43 0 2 -19 12 -42 21 -56 23 -209
30 -263 12z"/>
<path d="M8398 4436 c-95 -34 -131 -83 -125 -168 5 -91 47 -122 219 -168 102
-26 130 -48 126 -93 -8 -85 -172 -89 -319 -10 -4 2 -15 -17 -25 -42 -21 -55
-21 -55 79 -86 94 -29 222 -24 287 11 63 35 90 80 90 148 0 51 -3 58 -39 92
-32 31 -56 42 -142 65 -118 32 -154 47 -163 70 -32 85 92 133 228 87 l58 -20
15 35 c8 20 12 41 10 48 -15 36 -223 58 -299 31z"/>
<path d="M12270 4441 c-140 -46 -219 -151 -220 -292 0 -65 4 -85 31 -137 56
-114 160 -167 310 -160 191 9 299 118 299 302 0 120 -64 218 -175 267 -54 24
-197 36 -245 20z m187 -102 c40 -13 97 -75 113 -124 30 -92 -12 -205 -91 -246
-149 -76 -319 17 -319 175 0 130 108 226 235 208 17 -2 44 -8 62 -13z"/>
<path d="M6730 4208 c-57 -128 -116 -259 -131 -290 -15 -32 -27 -58 -26 -59 1
0 28 -1 60 -2 l57 -2 28 67 27 68 146 0 145 0 31 -70 31 -70 56 0 c31 0 56 2
56 5 0 3 -59 136 -131 295 l-132 290 -57 0 -57 0 -103 -232z m261 -105 l9 -23
-110 0 c-102 0 -109 1 -100 18 9 16 69 155 91 212 9 22 14 15 55 -80 25 -58
50 -115 55 -127z"/>
<path d="M7312 4148 l3 -293 50 -1 50 -1 5 195 5 195 161 -194 162 -194 43 0
44 1 3 292 2 292 -60 0 -60 0 -2 -192 -3 -191 -38 49 c-21 27 -91 113 -155
191 l-117 143 -48 0 -47 0 2 -292z"/>
<path d="M9046 4408 c-7 -18 -64 -145 -126 -283 -61 -137 -114 -255 -117 -261
-3 -8 15 -11 56 -10 l60 1 27 68 27 67 147 0 146 0 30 -66 29 -66 58 -1 c42
-2 56 1 52 10 -2 7 -62 139 -132 293 l-127 280 -58 0 c-56 0 -58 -1 -72 -32z
m137 -220 l46 -108 -109 0 -109 0 33 78 c79 182 77 179 86 157 4 -11 28 -68
53 -127z"/>
<path d="M9552 4150 l3 -290 209 -2 209 -1 1 47 1 46 -152 0 -153 0 0 245 0
245 -60 0 -60 0 2 -290z"/>
<path d="M9993 4428 c2 -7 52 -123 110 -258 57 -135 111 -261 119 -280 l15
-35 58 5 57 5 114 270 c63 149 117 278 120 288 5 15 -2 17 -48 17 l-54 0 -88
-212 c-49 -117 -92 -217 -96 -221 -4 -5 -15 11 -24 35 -10 24 -51 123 -93 221
l-75 177 -60 0 c-44 0 -59 -3 -55 -12z"/>
<path d="M10726 4156 c-69 -157 -126 -288 -126 -293 0 -4 25 -7 56 -7 l57 2
26 63 27 64 145 3 146 3 29 -67 29 -66 58 -1 c31 -1 57 -1 57 -1 0 2 -174 393
-236 532 l-24 52 -59 0 -58 0 -127 -284z m207 127 c8 -21 31 -75 51 -120 l35
-83 -108 0 -108 0 51 120 c28 66 54 120 57 120 4 0 14 -17 22 -37z"/>
<path d="M11350 4148 l0 -293 162 3 c90 1 183 7 208 13 92 21 177 98 200 180
6 19 10 66 10 104 0 129 -69 221 -197 264 -53 18 -87 21 -223 21 l-160 0 0
-292z m341 187 c54 -19 86 -49 110 -100 37 -81 14 -199 -47 -242 -48 -33 -92
-43 -195 -43 l-99 0 0 200 0 200 94 0 c58 0 110 -6 137 -15z"/>
<path d="M12832 4148 l3 -292 54 0 54 -1 -2 83 -2 82 83 0 83 0 55 -81 56 -81
57 -2 c31 0 57 0 57 2 0 1 -27 43 -61 94 -55 83 -59 92 -42 101 38 21 81 74
92 112 30 111 -12 204 -114 251 -46 22 -63 24 -213 24 l-162 0 2 -292z m312
188 c46 -19 66 -52 66 -107 0 -65 -26 -95 -94 -109 -30 -6 -81 -10 -113 -8
l-58 3 -3 118 -3 117 86 0 c51 0 99 -6 119 -14z"/>
</g>
</svg>
